<?xml version="1.0" encoding="UTF-8" standalone="no"?>
<svg
   xmlns:dc="http://purl.org/dc/elements/1.1/"
   xmlns:cc="http://creativecommons.org/ns#"
   xmlns:rdf="http://www.w3.org/1999/02/22-rdf-syntax-ns#"
   xmlns:svg="http://www.w3.org/2000/svg"
   xmlns="http://www.w3.org/2000/svg"
   xmlns:sodipodi="http://sodipodi.sourceforge.net/DTD/sodipodi-0.dtd"
   xmlns:inkscape="http://www.inkscape.org/namespaces/inkscape"
   version="1.0"
   width="880"
   height="359.96875"
   viewBox="0 0 704 287.975"
   preserveAspectRatio="xMidYMid meet"
   id="svg3013"
   inkscape:version="0.48.4 r9939"
   sodipodi:docname="caveslogo.svg">
  <defs
     id="defs3025" />
  <sodipodi:namedview
     pagecolor="#070052"
     bordercolor="#666666"
     borderopacity="1"
     objecttolerance="10"
     gridtolerance="10"
     guidetolerance="10"
     inkscape:pageopacity="1"
     inkscape:pageshadow="2"
     inkscape:window-width="1680"
     inkscape:window-height="987"
     id="namedview3023"
     showgrid="false"
     inkscape:zoom="1"
     inkscape:cx="514.76237"
     inkscape:cy="155.87821"
     inkscape:window-x="1912"
     inkscape:window-y="28"
     inkscape:window-maximized="1"
     inkscape:current-layer="svg3013"
     fit-margin-top="0"
     fit-margin-left="0"
     fit-margin-right="0"
     fit-margin-bottom="0" />
  <metadata
     id="metadata3015">
Created by potrace 1.12, written by Peter Selinger 2001-2015
<rdf:RDF>
  <cc:Work
     rdf:about="">
    <dc:format>image/svg+xml</dc:format>
    <dc:type
       rdf:resource="http://purl.org/dc/dcmitype/StillImage" />
    <dc:title></dc:title>
  </cc:Work>
</rdf:RDF>
</metadata>
  <path
     style="fill:#ffffff;stroke:none"
     d="m 260,80 -100,200 40,0 20.15625,-40 119.6875,0 L 360,280 400,280 300,80 z m 20,41.25 39.6875,78.75 -79.375,0 z"
     transform="scale(0.8,0.8)"
     id="path3118-4-0"
     inkscape:connector-curvature="0"
     sodipodi:nodetypes="ccccccccccccc" />
  <path
     style="fill:#ffffff;stroke:none"
     d="m 16,255.975 -16,32 672,0 16,-32 z"
     id="path3122-0"
     inkscape:connector-curvature="0"
     sodipodi:nodetypes="ccccc" />
  <path
     style="fill:#ffffff;stroke:none"
     d="M 48,0 32,32 672,32 688,0 z"
     id="path3122"
     inkscape:connector-curvature="0"
     sodipodi:nodetypes="ccccc" />
  <path
     style="fill:#ffffff;stroke:none"
     d="m 48,64 -48,96 32,64 64,0 16,-32 -64,0 -16,-32 32,-64 96,0 -16,-32 z"
     id="path3120"
     inkscape:connector-curvature="0"
     sodipodi:nodetypes="ccccccccccc" />
  <path
     style="fill:#ffffff;stroke:none"
     d="m 464,64 -64,128 16,32 96,0 16,-32 -96,0 16,-32 64,0 16,-32 -64,0 16,-32 64,0 -16,-32 z"
     id="path3116"
     inkscape:connector-curvature="0"
     sodipodi:nodetypes="cccccccccccccc" />
  <path
     style="fill:#ffffff;stroke:none"
     d="m 740,80 -40,80 20,40 120,0 -20,40 -120,0 -20,40 160,0 40,-80 -20,-40 -120,0 20,-40 120,0 -20,-40 z"
     transform="scale(0.8,0.8)"
     id="path3114"
     inkscape:connector-curvature="0"
     sodipodi:nodetypes="ccccccccccccccc" />
  <path
     style="fill:#ffffff;stroke:none"
     d="M 304,65 288,96 352,223 416,96 400,65 352,159 z"
     id="path3112"
     inkscape:connector-curvature="0"
     sodipodi:nodetypes="ccccccc" />
</svg>
